<svg width="24" height="24" viewBox="0 0 24 24" fill="none" xmlns="http://www.w3.org/2000/svg">
<path d="M19.801 5.82567C20.0699 5.01943 20.0662 4.14786 19.7903 3.34393C19.5145 2.53999 18.9817 1.84783 18.2733 1.37305C17.0594 0.558849 15.7573 0.363249 14.6074 0.822458C13.4425 1.28761 12.5918 2.39166 12.2733 3.85148C12.1698 4.32639 12.0738 4.83292 11.9881 5.35708C11.9357 5.67739 11.8734 6.0094 11.8033 6.34389C11.7946 6.39086 11.7711 6.43388 11.7363 6.46681C11.7015 6.49973 11.6571 6.52088 11.6095 6.52723C11.5606 6.53577 11.5103 6.52907 11.4655 6.50804C11.4206 6.48701 11.3834 6.45269 11.359 6.40979C11.053 5.88717 10.7882 5.38811 10.5722 4.92622C10.453 4.67341 10.283 4.44761 10.0725 4.26278C9.86203 4.07795 9.61566 3.93802 9.34861 3.85167C9.09269 3.76658 8.82176 3.73538 8.55305 3.76005C8.28434 3.78472 8.02373 3.86472 7.78781 3.99497C7.32938 4.24539 6.98854 4.66517 6.839 5.1635C6.68946 5.66184 6.74324 6.19867 6.98872 6.65788C7.7379 8.08321 9.25265 9.53651 10.3913 10.5047C10.4288 10.5363 10.4555 10.5787 10.4675 10.6261C10.4796 10.6735 10.4764 10.7234 10.4585 10.7689C9.72089 12.6095 8.78465 14.3651 7.66622 16.0049C7.49935 15.8009 7.34693 15.6014 7.21378 15.4099C7.10134 15.2462 6.95277 15.1103 6.77941 15.0124C6.60605 14.9146 6.41249 14.8574 6.21352 14.8453C6.01558 14.8321 5.81724 14.8642 5.63379 14.9393C5.45033 15.0144 5.28668 15.1303 5.15545 15.2783C4.94323 15.5165 4.82609 15.8238 4.82614 16.1421C4.82534 16.3623 4.88162 16.5791 4.98954 16.7714C5.27503 17.2851 5.59337 17.7801 5.9426 18.2533C5.5233 18.7399 5.08884 19.206 4.63923 19.6518C4.39608 19.8939 4.21318 20.1892 4.10513 20.5141C3.99708 20.839 3.96685 21.1844 4.01686 21.523C4.06687 21.8615 4.19573 22.1838 4.39317 22.4641C4.59062 22.7443 4.85118 22.9749 5.1541 23.1373L5.19938 23.1616C5.51227 23.3309 5.86271 23.4198 6.21892 23.4203C6.64346 23.4204 7.05802 23.2923 7.40763 23.0528C9.14725 21.8629 11.368 19.6885 13.3481 17.2358C13.374 17.2029 13.408 17.1774 13.4469 17.1617C13.4858 17.146 13.5281 17.1408 13.5697 17.1465C14.7588 17.3134 15.9325 17.5745 17.0796 17.9276C17.3598 18.0212 17.6586 18.0466 17.9508 18.0016C18.2429 17.9567 18.52 17.8427 18.7587 17.6693C18.9958 17.5003 19.1888 17.2773 19.3214 17.0189C19.454 16.7605 19.5224 16.4743 19.5208 16.1842V16.1199C19.527 15.6444 19.3717 15.1808 19.0799 14.8041C18.7881 14.4275 18.3769 14.1597 17.913 14.0443C17.3685 13.9209 16.8138 13.8474 16.2558 13.825C16.2148 13.8231 16.175 13.8105 16.1406 13.7884C16.1061 13.7662 16.0782 13.7353 16.0597 13.6989C16.0398 13.6615 16.0303 13.6195 16.0322 13.5773C16.0342 13.535 16.0474 13.4941 16.0707 13.4587C17.6186 11.0729 18.8711 8.51 19.801 5.82567ZM5.57822 16.4446C5.52649 16.3521 5.49992 16.2479 5.50114 16.1421C5.50137 15.9882 5.55803 15.8397 5.6605 15.7244C5.72379 15.6529 5.80271 15.5967 5.89122 15.5602C5.97973 15.5236 6.07548 15.5078 6.17113 15.5137C6.26815 15.5197 6.36251 15.5477 6.447 15.5955C6.53149 15.6433 6.60388 15.7097 6.65864 15.7896C6.83379 16.0421 7.03805 16.3055 7.26523 16.575C6.98262 16.9666 6.6903 17.3484 6.38829 17.7205C6.0939 17.311 5.82343 16.885 5.57822 16.4446ZM15.4606 14.006C15.5328 14.1469 15.6413 14.2663 15.775 14.352C15.9088 14.4376 16.063 14.4865 16.2219 14.4936C16.738 14.5141 17.2511 14.5816 17.7548 14.6953C18.0714 14.7757 18.3514 14.96 18.5495 15.2184C18.7477 15.4768 18.8522 15.7941 18.8464 16.1189V16.1842C18.8475 16.3684 18.8042 16.5501 18.72 16.7142C18.6359 16.8782 18.5135 17.0199 18.3629 17.1272C18.2103 17.2378 18.0332 17.3104 17.8465 17.339C17.6599 17.3675 17.469 17.3512 17.29 17.2913C16.9578 17.1829 16.6177 17.0862 16.2791 16.9992C16.4439 16.6404 16.6516 16.1246 16.6607 15.7869C16.663 15.698 16.6298 15.6118 16.5682 15.5472C16.5377 15.5153 16.5012 15.4896 16.4607 15.4717C16.4202 15.4538 16.3766 15.444 16.3323 15.4428C16.2429 15.4405 16.1562 15.4736 16.0913 15.5348C16.0264 15.596 15.9886 15.6804 15.9863 15.7693C15.9136 16.1425 15.7864 16.5031 15.6086 16.8396C14.8864 16.6789 14.2035 16.5624 13.6664 16.484C13.5087 16.4615 13.3477 16.4803 13.1994 16.5386C13.0512 16.5969 12.9209 16.6926 12.8213 16.8164C12.5901 17.1026 12.3561 17.3844 12.1195 17.6617C11.6504 17.483 11.2046 17.2489 10.7917 16.9645C10.7573 16.9368 10.7178 16.916 10.6753 16.9034C10.6329 16.8909 10.5884 16.8867 10.5443 16.8913C10.5002 16.8958 10.4575 16.9089 10.4186 16.9299C10.3796 16.9508 10.3452 16.9792 10.3173 17.0134C10.2893 17.0475 10.2685 17.0869 10.2558 17.1291C10.2432 17.1713 10.239 17.2155 10.2436 17.2593C10.2482 17.3031 10.2613 17.3456 10.2824 17.3843C10.3035 17.423 10.332 17.4573 10.3664 17.485C10.7662 17.7724 11.1993 18.011 11.6563 18.1958C10.5622 19.4526 9.37062 20.6221 8.09265 21.6938C7.75684 21.4404 7.45278 21.148 7.187 20.8227C7.16482 20.7846 7.13531 20.7512 7.10016 20.7245C7.06501 20.6977 7.0249 20.6781 6.98212 20.6668C6.93935 20.6554 6.89475 20.6526 6.85087 20.6584C6.80698 20.6642 6.76468 20.6785 6.72637 20.7005C6.68806 20.7226 6.65449 20.7519 6.62758 20.7869C6.60068 20.8218 6.58096 20.8617 6.56955 20.9042C6.55814 20.9468 6.55527 20.9911 6.5611 21.0347C6.56693 21.0784 6.58135 21.1204 6.60353 21.1585C6.76924 21.4432 7.22342 21.8482 7.55157 22.1197C7.37179 22.2555 7.19509 22.3846 7.02456 22.5013C6.80501 22.6505 6.54811 22.7363 6.28245 22.749C6.01679 22.7617 5.75279 22.7009 5.51983 22.5733L5.47455 22.5488C5.26223 22.4357 5.07976 22.2745 4.94201 22.078C4.80425 21.8816 4.7151 21.6556 4.68182 21.4185C4.64655 21.1848 4.6673 20.9461 4.74238 20.7218C4.81745 20.4976 4.94472 20.2941 5.11383 20.128C5.63699 19.6108 6.13933 19.0632 6.62164 18.4914C6.62723 18.4851 6.63243 18.4785 6.63763 18.4722C7.69868 17.207 8.64041 15.8475 9.45093 14.4108C9.71941 14.5619 9.99866 14.6933 10.2864 14.8039C10.3699 14.8335 10.4617 14.8293 10.5421 14.7921C10.6224 14.755 10.6848 14.6879 10.7158 14.6053C10.7467 14.5228 10.7438 14.4314 10.7075 14.3511C10.6713 14.2707 10.6047 14.2077 10.5221 14.1757C10.2646 14.0761 10.0148 13.9581 9.77446 13.8227C10.2622 12.9123 10.6996 11.9763 11.0848 11.0185C11.1549 10.843 11.1681 10.65 11.1223 10.4667C11.0766 10.2834 10.9742 10.1189 10.8296 9.9963C9.90187 9.22522 9.05334 8.36453 8.29652 7.42687C8.5316 7.11901 8.92816 6.6462 9.23512 6.47129C9.27354 6.4494 9.30725 6.4202 9.33433 6.38536C9.3614 6.35052 9.38131 6.31072 9.39292 6.26823C9.40452 6.22574 9.40759 6.18139 9.40196 6.13772C9.39632 6.09405 9.38209 6.05191 9.36008 6.01371C9.33806 5.9755 9.30869 5.94199 9.27365 5.91507C9.23861 5.88815 9.19857 5.86836 9.15584 5.85682C9.1131 5.84528 9.06849 5.84223 9.02457 5.84783C8.98064 5.85343 8.93826 5.86758 8.89983 5.88947C8.51 6.15272 8.16783 6.4797 7.88782 6.85655C7.77683 6.68643 7.67586 6.51631 7.58645 6.34695C7.42363 6.04258 7.38782 5.68673 7.48676 5.35632C7.5857 5.0259 7.81144 4.74747 8.11519 4.58119C8.30228 4.47748 8.51297 4.42313 8.72718 4.42333C8.8674 4.4237 9.00668 4.44601 9.13993 4.48943C9.3189 4.54718 9.48405 4.64085 9.62514 4.76462C9.76624 4.88839 9.88028 5.03963 9.96022 5.20899C10.1851 5.68946 10.4593 6.20691 10.7759 6.74716C10.8687 6.90599 11.0077 7.03319 11.1746 7.11202C11.3415 7.19085 11.5284 7.21763 11.7109 7.18884C11.8934 7.16005 12.0629 7.07703 12.197 6.95071C12.3311 6.82438 12.4237 6.66066 12.4625 6.48106C12.535 6.13622 12.5989 5.79483 12.6531 5.4657C12.7063 5.13964 12.7635 4.82232 12.8248 4.51376C13.2809 4.74039 13.7044 4.92411 13.7273 4.93408C13.8093 4.96964 13.9022 4.97137 13.9855 4.93887C14.0687 4.90637 14.1356 4.84232 14.1714 4.76079C14.2072 4.67927 14.2089 4.58696 14.1762 4.50416C14.1435 4.42137 14.0791 4.35487 13.9971 4.31931C13.9909 4.31662 13.4672 4.08941 12.971 3.83538C13.2653 2.67654 13.9462 1.81004 14.8594 1.44566C15.7943 1.07074 16.873 1.24316 17.8964 1.929C18.4041 2.2697 18.8045 2.74624 19.0513 3.30359C19.2982 3.86094 19.3814 4.47635 19.2913 5.07872C18.7133 4.93133 18.1493 4.73395 17.6058 4.48885C17.5663 4.46709 17.5228 4.45345 17.4779 4.44872C17.433 4.44399 17.3876 4.44828 17.3444 4.46133C17.3012 4.47438 17.2611 4.49593 17.2264 4.52469C17.1917 4.55346 17.1632 4.58885 17.1425 4.62878C17.1219 4.66871 17.1095 4.71235 17.1061 4.75713C17.1028 4.8019 17.1085 4.84689 17.1229 4.88942C17.1374 4.93196 17.1603 4.97118 17.1903 5.00475C17.2203 5.03832 17.2567 5.06555 17.2975 5.08485C17.8849 5.35284 18.4952 5.56801 19.1212 5.72778C18.7753 6.73065 18.3782 7.71536 17.9315 8.67806C17.4334 8.5294 16.2921 8.15908 15.6512 7.71136C15.6149 7.68604 15.574 7.66806 15.5308 7.65846C15.4876 7.64885 15.4429 7.6478 15.3992 7.65537C15.3556 7.66294 15.3139 7.67898 15.2765 7.70257C15.2391 7.72617 15.2068 7.75685 15.1813 7.79288C15.1558 7.82891 15.1377 7.86957 15.1281 7.91254C15.1184 7.95551 15.1174 7.99996 15.125 8.04334C15.1326 8.08672 15.1487 8.12819 15.1724 8.16537C15.1962 8.20255 15.227 8.23472 15.2633 8.26004C15.9483 8.73898 17.07 9.11773 17.6428 9.29225C17.0036 10.6009 16.2886 11.8716 15.5014 13.0979C15.4145 13.2322 15.3649 13.387 15.3578 13.5465C15.3506 13.706 15.3861 13.8646 15.4606 14.006Z" fill="#FB6D3A"/>
<path d="M8.99272 19.3329C8.83048 19.4915 8.66945 19.6456 8.50965 19.7952C8.44451 19.8562 8.40641 19.9404 8.40372 20.0293C8.40103 20.1182 8.43397 20.2045 8.49529 20.2692C8.55662 20.334 8.64131 20.3719 8.73073 20.3746C8.82015 20.3772 8.90697 20.3445 8.97211 20.2835C9.13551 20.1303 9.30013 19.9727 9.46598 19.8107C9.49833 19.78 9.52422 19.7432 9.54214 19.7025C9.56005 19.6617 9.56964 19.6179 9.57034 19.5734C9.57104 19.5289 9.56283 19.4848 9.54621 19.4435C9.52958 19.4022 9.50486 19.3647 9.47348 19.333C9.44211 19.3013 9.40471 19.2761 9.36346 19.2589C9.32221 19.2418 9.27794 19.2329 9.23321 19.2329C9.18849 19.2329 9.14422 19.2417 9.10296 19.2589C9.06171 19.2761 9.0243 19.3012 8.99292 19.3329H8.99272Z" fill="#FB6D3A"/>
<path d="M15.099 10.5473C15.0925 10.5446 14.4296 10.2803 13.9219 10.0214C13.8825 10.0013 13.8395 9.9891 13.7953 9.9855C13.7512 9.9819 13.7068 9.98697 13.6646 10.0004C13.6224 10.0139 13.5833 10.0355 13.5495 10.064C13.5158 10.0925 13.4879 10.1273 13.4677 10.1665C13.4475 10.2056 13.4352 10.2484 13.4316 10.2923C13.4279 10.3362 13.433 10.3803 13.4466 10.4223C13.4601 10.4642 13.4818 10.5031 13.5105 10.5367C13.5391 10.5702 13.5742 10.5979 13.6136 10.618C14.1498 10.8914 14.8198 11.1587 14.848 11.17C14.931 11.203 15.0238 11.2019 15.1061 11.1668C15.1883 11.1318 15.2531 11.0657 15.2863 10.9832C15.3195 10.9006 15.3184 10.8083 15.2832 10.7266C15.2479 10.6448 15.1815 10.5804 15.0985 10.5473H15.099Z" fill="#FB6D3A"/>
</svg>
