<svg width="28" height="18" viewBox="0 0 28 18" fill="none" xmlns="http://www.w3.org/2000/svg">
<rect width="28" height="17.6471" rx="3.6" fill="#2D2D2D"/>
<path d="M16.3039 8.82351C16.3039 10.7273 15.4007 12.4246 13.998 13.5198C15.054 14.3427 16.3629 14.7996 17.7216 14.7996C21.044 14.7996 23.7469 12.1187 23.7469 8.82351C23.7469 5.52829 21.044 2.84741 17.7216 2.84741C16.3629 2.84741 15.054 3.30434 14.0001 4.12552C15.4006 5.22231 16.3039 6.91973 16.3039 8.82351Z" fill="#FFCD00"/>
<path d="M16.3036 8.82351C16.3036 6.91973 15.4003 5.22231 13.9977 4.12721C12.9726 3.32677 11.6812 2.84741 10.2782 2.84741C6.95589 2.84741 4.25293 5.52829 4.25293 8.82351C4.25293 12.1187 6.95589 14.7996 10.2782 14.7996C11.6812 14.7996 12.9726 14.3202 13.9977 13.5198C15.4003 12.4246 16.3036 10.7273 16.3036 8.82351Z" fill="#FF5023"/>
</svg>
