<svg width="20" height="20" viewBox="0 0 20 20" fill="none" xmlns="http://www.w3.org/2000/svg">
<path d="M9.80966 1.5177C9.86927 1.33288 10.1307 1.33288 10.1904 1.5177L11.9821 7.07338C12.0088 7.15615 12.0859 7.21218 12.1729 7.21199L18.0103 7.19923C18.2045 7.19881 18.2853 7.4475 18.128 7.56129L13.3979 10.9821C13.3274 11.0331 13.2979 11.1238 13.325 11.2064L15.141 16.7542C15.2014 16.9388 14.9899 17.0925 14.833 16.978L10.1179 13.5365C10.0477 13.4852 9.95234 13.4852 9.8821 13.5365L5.16701 16.978C5.01015 17.0925 4.79861 16.9388 4.85902 16.7542L6.67502 11.2064C6.70208 11.1238 6.67262 11.0331 6.60215 10.9821L1.87206 7.56129C1.71471 7.4475 1.79551 7.19881 1.9897 7.19923L7.82714 7.21199C7.91411 7.21218 7.99123 7.15615 8.01793 7.07338L9.80966 1.5177Z" fill="#D9D9D9"/>
</svg>
